<?xml version="1.0" encoding="utf-8"?>
<!-- Generator: Adobe Illustrator 25.3.0, SVG Export Plug-In . SVG Version: 6.00 Build 0)  -->
<svg version="1.1" id="Capa_1" xmlns="http://www.w3.org/2000/svg" xmlns:xlink="http://www.w3.org/1999/xlink" x="0px" y="0px"
	 viewBox="0 0 512 512" style="enable-background:new 0 0 512 512;" xml:space="preserve">
<style type="text/css">
	.st0{display:none;}
	.st1{display:inline;}
	.st2{fill:#FFFFFF;}
	.st3{display:inline;fill:#FFFFFF;}
	.st4{display:none;fill:#04050A;}
</style>
<g class="st0">
	<g class="st1">
		<path class="st2" d="M93.6,260.3c9.5,4.4,16.2,11,18.6,21c5.2,21.6-2,46.2-33.1,49.9c-12,1.4-24.3,0.9-36.5,1.1
			c-12.6,0.2-25.2-0.1-37.9,0.1c-3.6,0-4.7-1.2-4.7-4.8c0.1-41.4,0.1-82.9,0-124.3c0-4.1,1.4-5.2,5.3-5.2
			c20.3,0.2,40.6,0.1,60.9,0.1c9.3,0,18.1,1.5,26.2,6.6c20.2,12.7,19.6,43.6,2.5,54.2C94.6,259.1,94.4,259.5,93.6,260.3z
			 M47.7,272.1C47.7,272.2,47.7,271.9,47.7,272.1c-7.1,0-14.2,0.1-21.3,0c-3.4-0.1-4.7,1.4-4.7,4.7c0,10.6,0,21.2,0,31.8
			c0,3.5,1.7,4.9,5.1,4.9c6.1-0.1,12.2,0.1,18.3-0.1c9.7-0.2,19.4-0.2,29.1-0.9c5.9-0.4,11.4-2.4,14.8-7.8
			c8.3-13.1,0.9-29.9-14.3-31.6C65.7,271.9,56.7,272.4,47.7,272.1z M46.3,253.1C46.3,253.2,46.3,252.9,46.3,253.1
			c8.2-0.4,16.5-0.1,24.7-0.9c7.9-0.8,13.3-6.2,14.4-13c1.9-12.1-4.1-20.5-16.4-21.2c-14.3-0.8-28.7-0.5-43-0.7
			c-3.1,0-4.3,1.8-4.3,4.8c0,8.7,0,17.4,0,26.1c0,3.4,1.5,5,5,5C33.2,253,39.8,253.1,46.3,253.1z"/>
		<path class="st2" d="M227.9,260.1c8.4,3.9,14.1,8.6,17.6,15.7c12.5,25.1-2.8,52.8-31.3,55.9c-10.9,1.2-22,0.9-33,1
			c-13.5,0.1-27-0.1-40.5,0.1c-3.8,0.1-5-1-5-4.9c0.1-41.6,0.1-83.2,0-124.8c0-3.4,1.1-4.6,4.6-4.6c21.5,0.1,43-0.1,64.5,0.1
			c10.7,0.1,20.5,3.2,28.6,10.7c13.3,12.3,13.5,39.6-2.8,49.9C230,259.5,229.4,259.6,227.9,260.1z M183.4,272.4
			C183.4,272.2,183.4,272.7,183.4,272.4c-7.1,0-14.2,0.1-21.3,0c-3.2-0.1-4.8,1-4.8,4.5c0.1,10.6,0.1,21.2,0,31.8
			c-0.1,3.9,1.7,5.1,5.3,5c5.1-0.1,10.1,0,15.2-0.1c10.6-0.2,21.1-0.3,31.7-0.9c5.9-0.4,11.4-2.4,14.9-7.8
			c8.6-13.3,1.1-30.2-14.5-31.7C201.1,272.5,192.2,272.4,183.4,272.4z M181.6,253.4C181.6,253.4,181.6,253.4,181.6,253.4
			c4.2,0,8.4,0.1,12.6,0c4.2-0.1,8.4-0.2,12.5-0.9c6.7-1.1,11.9-4.5,13.8-11.5c3.2-11.8-3.2-21.8-15.4-22.6
			c-14.4-0.9-28.9-0.6-43.4-0.8c-3,0-4.4,1.4-4.4,4.6c0.1,8.9,0.1,17.7,0,26.6c-0.1,3.4,1.4,4.7,4.7,4.7
			C168.6,253.4,175.1,253.4,181.6,253.4z"/>
		<path class="st2" d="M395.1,199.4c-9.1,17.1-17.6,33.3-26.2,49.4c-14,26.3-28,52.5-42.1,78.8c-0.4,0.8-0.7,1.7-1.3,2.3
			c-0.9,1-2,2.5-3,2.5c-1,0-2.3-1.5-2.9-2.6c-6-11.1-12-22.2-17.9-33.4c-16.4-30.8-32.7-61.5-49.1-92.3c-2.6-4.9-2.2-5.6,3.4-5.7
			c4.5,0,9,0.3,13.5-0.1c4.5-0.4,6.7,1.3,8.7,5.2c13.4,25.9,27,51.8,40.6,77.6c0.9,1.6,2.6,2.7,3.9,4.1c1.2-1.3,2.8-2.5,3.6-4
			c13.8-26.2,27.6-52.4,41.3-78.7c1.5-3,3.3-4.3,6.7-4.1c5.2,0.3,10.4,0,15.7,0.1C391.4,198.6,392.9,199,395.1,199.4z"/>
		<path class="st2" d="M499.3,313.4c-11.4-0.6-13.5-2.5-17.4-10.3c-12.3-24.5-25.3-48.7-38.1-72.9c-0.7-1.4-2.2-2.4-3.3-3.6
			c-1.3,1.2-2.9,2.2-3.7,3.7c-13.9,26.3-27.7,52.7-41.4,79.1c-1.6,3-3.3,4.3-6.8,4.1c-5.2-0.3-10.4-0.1-15.7-0.1
			c-4.7,0-5.2-0.8-2.9-5.1c15.4-29,30.9-57.9,46.3-86.9c6.9-12.9,13.8-25.9,20.8-38.8c0.7-1.4,2.2-2.3,3.4-3.5
			c1.1,1.2,2.6,2.2,3.3,3.6c22.3,41.7,44.6,83.5,66.8,125.3c2.5,4.7,2.1,5.3-3.4,5.3C504.6,313.4,501.9,313.4,499.3,313.4z"/>
	</g>
</g>
<image style="display:none;overflow:visible;" width="1080" height="2400" xlink:href="B6150239.jpg"  transform="matrix(1 0 0 1 -1127.5532 -839.1064)">
</image>
<g class="st0">
	<polygon class="st3" points="0,378.6 0,445.7 313.6,445.7 360.9,378.6 	"/>
	<polygon class="st3" points="0,230.6 0,297.8 379.2,297.8 436.5,230.6 	"/>
	<polygon class="st3" points="0,66.3 0,133.4 444.9,133.4 512,66.3 	"/>
</g>
<g class="st0">
	<path class="st3" d="M256,67.3C73.1,67.3,1.2,256,1.2,256S65,444.7,256,444.7c169.8,0,254.8-188.7,254.8-188.7S417.8,67.3,256,67.3
		z M254.2,385.3c-65,0-117.6-52.7-117.6-117.6c0-65,52.7-117.6,117.6-117.6s117.6,52.7,117.6,117.6
		C371.8,332.6,319.1,385.3,254.2,385.3z"/>
	<path class="st3" d="M303,214.5l-47,53.2v-71c-39.2,0-71,31.8-71,71s31.8,71,71,71s71-31.8,71-71C327,246.5,317.7,227.5,303,214.5z
		"/>
</g>
<image style="display:none;overflow:visible;" width="1080" height="2400" xlink:href="Screenshot_2022-03-07-16-36-47-355_com.bancomer.mbanking.jpg"  transform="matrix(1 0 0 1 -961.7234 51.5106)">
</image>
<path class="st4" d="M-1179.9,2273.7v-3.7c0-4.7-3.8-8.5-8.5-8.5s-8.5,3.8-8.5,8.5v3.5c-1.6,0.5-2.8,2-2.8,3.8v10.7c0,2.2,1.8,4,4,4
	h14.2c2.2,0,4-1.8,4-4v-10.7C-1177.5,2275.7-1178.5,2274.3-1179.9,2273.7z M-1186.1,2284.3h-8.2v-2.9h10.9L-1186.1,2284.3z
	 M-1182.9,2273.3h-11v-3.3c0-3,2.5-5.5,5.5-5.5s5.5,2.5,5.5,5.5V2273.3z"/>
<g class="st0">
	<polygon class="st3" points="206.2,297.9 274,297.9 296.3,273.5 206.2,273.5 	"/>
	<path class="st3" d="M493.7,0H256H18.3C9.1,0,1.6,7.5,1.6,16.7v232.9c0,0,44.5,262.4,254.4,262.4c209.9,0,254.4-262.4,254.4-262.4
		V16.7C510.4,7.5,502.9,0,493.7,0z M345,329.1c0,18.4-15,33.4-33.4,33.4H194c-18.4,0-33.4-15-33.4-33.4v-89c0-15,10-27.6,23.6-31.8
		v-29.2c0-39,31.7-70.8,70.8-70.8s70.8,31.7,70.8,70.8v30.8c11.4,5.3,19.3,16.8,19.3,30.2V329.1z"/>
	<path class="st3" d="M254.9,133.3c-25.3,0-45.8,20.6-45.8,45.8v27.6h91.7v-27.6C300.8,153.9,280.2,133.3,254.9,133.3z"/>
</g>
<g>
	<g>
		<path class="st2" d="M276.2,8v230.7h230.7V8H276.2z M465.1,195.4H318V48.4h147.1V195.4z"/>
		<path class="st2" d="M5.1,273.3V504h230.7V273.3H5.1z M195.4,462.2H48.4V315.1h147.1V462.2z"/>
		<path class="st2" d="M5.1,8v230.7h230.7V8H5.1z M195.4,195.4H48.4V48.4h147.1V195.4z"/>
		<rect x="359.1" y="90.2" class="st2" width="64.9" height="64.9"/>
		<rect x="90.2" y="362.7" class="st2" width="64.9" height="64.9"/>
		<rect x="90.2" y="90.2" class="st2" width="64.9" height="64.9"/>
	</g>
	<g>
		<polygon class="st2" points="468,504 415.1,504 415.1,467.5 363.7,467.5 318,467.5 318,365.6 276.2,365.6 276.2,504 506.9,504 
			506.9,365.6 468,365.6 		"/>
		<rect x="276.2" y="273.3" class="st2" width="41.8" height="43.7"/>
		<rect x="363.7" y="365.6" class="st2" width="51.4" height="56.7"/>
		<rect x="363.7" y="273.3" class="st2" width="143.2" height="43.7"/>
	</g>
</g>
</svg>
